<?xml version="1.0" encoding="utf-8"?>
<!-- Generator: Adobe Illustrator 21.1.0, SVG Export Plug-In . SVG Version: 6.00 Build 0)  -->
<svg version="1.1" id="Layer_1" xmlns="http://www.w3.org/2000/svg" xmlns:xlink="http://www.w3.org/1999/xlink" x="0px" y="0px"
	 viewBox="0 0 400 206.1" style="enable-background:new 0 0 400 206.1;" xml:space="preserve">
<style type="text/css">
	.st0{fill:#FFFFFF;}
	.st1{fill:#226699;}
</style>
<g>
	<path class="st0" d="M141.9,163.6H39.4V27.7h100.8V55H80.4v24.9h57.1v27.4H80.4v29h61.5V163.6z"/>
</g>
<g>
	<path class="st0" d="M299.6,163.6h-41V84.9l-37,45.6h-3.2l-37.1-45.6v78.7h-39.8V27.7h37.2l41.8,51l42-51h37.2V163.6z"/>
</g>
<g>
	<g>
		<path class="st1" d="M358.4,163.6h-41V84.9l-37,45.6h-3.2l-37.1-45.6v78.7h-39.8V27.7h37.2l41.8,51l42-51h37.2V163.6z"/>
	</g>
</g>
<g>
	<path class="st0" d="M24.3,188.3h-9.7v-12.8h9.5v2.6h-5.6v2.3h5.4v2.6h-5.4v2.7h5.8V188.3z"/>
	<path class="st0" d="M36,183.1h-5.3v5.2h-3.9v-12.8H36v2.6h-5.3v2.5H36V183.1z"/>
	<path class="st0" d="M47.8,183.1h-5.3v5.2h-3.9v-12.8h9.2v2.6h-5.3v2.5h5.3V183.1z"/>
	<path class="st0" d="M64.1,181.9c0,1.2-0.3,2.3-0.8,3.3c-0.6,1-1.4,1.8-2.5,2.4s-2.4,0.9-4,0.9c-1.6,0-2.9-0.3-4-0.9
		s-1.9-1.4-2.4-2.4c-0.5-1-0.8-2.1-0.8-3.2c0-1.2,0.3-2.2,0.8-3.2c0.5-1,1.3-1.8,2.4-2.4c1.1-0.6,2.4-0.9,4-0.9
		c1.2,0,2.2,0.2,3.2,0.5c0.9,0.4,1.7,0.8,2.3,1.4c0.6,0.6,1.1,1.3,1.4,2.1C64,180.2,64.1,181,64.1,181.9z M60.2,181.9
		c0-0.5-0.1-0.9-0.2-1.3c-0.1-0.4-0.4-0.7-0.6-1c-0.3-0.3-0.6-0.5-1-0.7c-0.4-0.2-0.9-0.2-1.4-0.2c-1,0-1.9,0.3-2.4,0.9
		c-0.6,0.6-0.9,1.4-0.9,2.4c0,1,0.3,1.8,0.9,2.4s1.4,0.9,2.4,0.9c0.7,0,1.3-0.1,1.8-0.4c0.5-0.3,0.9-0.7,1.1-1.2
		C60.1,183.1,60.2,182.5,60.2,181.9z"/>
	<path class="st0" d="M79,188.3h-4.2l-1-2.3c-0.4-0.8-0.7-1.4-1-1.8c-0.3-0.4-0.6-0.6-0.9-0.7c-0.3-0.1-0.6-0.2-1.1-0.2h-0.4v5h-3.9
		v-12.8h6.6c1.1,0,1.9,0.2,2.6,0.6c0.7,0.4,1.2,1,1.5,1.6c0.3,0.6,0.4,1.2,0.4,1.8c0,0.6-0.1,1.2-0.4,1.6c-0.2,0.4-0.5,0.8-0.8,1
		c-0.3,0.2-0.6,0.4-0.9,0.6c0.4,0.2,0.8,0.5,1,0.9c0.3,0.3,0.6,1,1.1,2L79,188.3z M73.7,179.5c0-0.6-0.2-1-0.6-1.2s-1-0.4-1.9-0.4
		h-0.8v3.1h0.8c0.9,0,1.6-0.1,1.9-0.3C73.5,180.5,73.7,180.1,73.7,179.5z"/>
	<path class="st0" d="M92.2,178.6h-4.7v9.7h-3.9v-9.7H79v-3.1h13.3V178.6z"/>
	<path class="st0" d="M104.2,188.3h-9.7v-12.8h3.9v9.8h5.9V188.3z"/>
	<path class="st0" d="M116.1,188.3h-9.7v-12.8h9.5v2.6h-5.6v2.3h5.4v2.6h-5.4v2.7h5.8V188.3z"/>
	<path class="st0" d="M127.7,184.6c0,0.8-0.2,1.5-0.6,2.1c-0.4,0.6-1,1-1.7,1.3c-0.7,0.3-1.6,0.5-2.5,0.5c-0.3,0-0.6,0-1-0.1
		c-0.4,0-0.9-0.1-1.5-0.3c-0.6-0.2-1.3-0.4-2-0.7v-3.1c0.6,0.4,1.3,0.7,1.9,1c0.6,0.3,1.3,0.4,2,0.4c0.7,0,1.1-0.1,1.3-0.3
		s0.3-0.4,0.3-0.6c0-0.3-0.2-0.6-0.5-0.9c-0.3-0.2-0.8-0.5-1.5-0.7c-0.7-0.3-1.3-0.6-1.9-1c-0.5-0.3-1-0.8-1.3-1.3
		c-0.3-0.5-0.5-1.1-0.5-1.9c0-0.7,0.2-1.3,0.5-1.9c0.3-0.6,0.9-1,1.6-1.3c0.7-0.3,1.5-0.5,2.6-0.5c0.7,0,1.4,0.1,2,0.2
		c0.6,0.1,1.1,0.3,1.5,0.5c0.4,0.2,0.7,0.3,0.8,0.4v3c-0.5-0.4-1.1-0.7-1.8-1c-0.6-0.3-1.3-0.4-2.1-0.4c-0.5,0-0.8,0.1-1,0.3
		c-0.2,0.2-0.3,0.4-0.3,0.7c0,0.3,0.1,0.5,0.3,0.7c0.2,0.2,0.6,0.4,1.2,0.7c1,0.5,1.8,0.9,2.4,1.2s1.1,0.8,1.4,1.3
		C127.5,183.2,127.7,183.9,127.7,184.6z"/>
	<path class="st0" d="M139.3,184.6c0,0.8-0.2,1.5-0.6,2.1c-0.4,0.6-1,1-1.7,1.3c-0.7,0.3-1.6,0.5-2.5,0.5c-0.3,0-0.6,0-1-0.1
		c-0.4,0-0.9-0.1-1.5-0.3c-0.6-0.2-1.3-0.4-2-0.7v-3.1c0.6,0.4,1.3,0.7,1.9,1c0.6,0.3,1.3,0.4,2,0.4c0.7,0,1.1-0.1,1.3-0.3
		s0.3-0.4,0.3-0.6c0-0.3-0.2-0.6-0.5-0.9c-0.3-0.2-0.8-0.5-1.5-0.7c-0.7-0.3-1.3-0.6-1.9-1c-0.5-0.3-1-0.8-1.3-1.3
		c-0.3-0.5-0.5-1.1-0.5-1.9c0-0.7,0.2-1.3,0.5-1.9c0.3-0.6,0.9-1,1.6-1.3c0.7-0.3,1.5-0.5,2.6-0.5c0.7,0,1.4,0.1,2,0.2
		c0.6,0.1,1.1,0.3,1.5,0.5c0.4,0.2,0.7,0.3,0.8,0.4v3c-0.5-0.4-1.1-0.7-1.8-1c-0.6-0.3-1.3-0.4-2.1-0.4c-0.5,0-0.8,0.1-1,0.3
		c-0.2,0.2-0.3,0.4-0.3,0.7c0,0.3,0.1,0.5,0.3,0.7c0.2,0.2,0.6,0.4,1.2,0.7c1,0.5,1.8,0.9,2.4,1.2s1.1,0.8,1.4,1.3
		C139.1,183.2,139.3,183.9,139.3,184.6z"/>
	<path class="st0" d="M162.4,188.3h-3.9v-7.4l-3.5,4.3h-0.3l-3.5-4.3v7.4h-3.8v-12.8h3.5l3.9,4.8l4-4.8h3.5V188.3z"/>
	<path class="st0" d="M179.4,181.9c0,1.2-0.3,2.3-0.8,3.3c-0.6,1-1.4,1.8-2.5,2.4s-2.4,0.9-4,0.9c-1.6,0-2.9-0.3-4-0.9
		s-1.9-1.4-2.4-2.4c-0.5-1-0.8-2.1-0.8-3.2c0-1.2,0.3-2.2,0.8-3.2c0.5-1,1.3-1.8,2.4-2.4c1.1-0.6,2.4-0.9,4-0.9
		c1.2,0,2.2,0.2,3.2,0.5c0.9,0.4,1.7,0.8,2.3,1.4c0.6,0.6,1.1,1.3,1.4,2.1C179.3,180.2,179.4,181,179.4,181.9z M175.5,181.9
		c0-0.5-0.1-0.9-0.2-1.3c-0.1-0.4-0.4-0.7-0.6-1c-0.3-0.3-0.6-0.5-1-0.7c-0.4-0.2-0.9-0.2-1.4-0.2c-1,0-1.9,0.3-2.4,0.9
		c-0.6,0.6-0.9,1.4-0.9,2.4c0,1,0.3,1.8,0.9,2.4s1.4,0.9,2.4,0.9c0.7,0,1.3-0.1,1.8-0.4c0.5-0.3,0.9-0.7,1.1-1.2
		C175.3,183.1,175.5,182.5,175.5,181.9z"/>
	<path class="st0" d="M195.5,188.3H192l-6.7-7.1v7.1h-3.8v-12.8h3.4l6.6,7.1v-7.1h3.9V188.3z"/>
	<path class="st0" d="M208.4,188.3h-9.7v-12.8h9.5v2.6h-5.6v2.3h5.4v2.6h-5.4v2.7h5.8V188.3z"/>
	<path class="st0" d="M223.5,175.5l-5,6.9v5.9h-3.9v-5.8l-5.1-7h4l2.9,4l3-4H223.5z"/>
	<path class="st0" d="M245.7,188.3h-3.9v-7.4l-3.5,4.3h-0.3l-3.5-4.3v7.4h-3.8v-12.8h3.5l3.9,4.8l4-4.8h3.5V188.3z"/>
	<path class="st0" d="M263,188.3h-4l-1-2.6h-5.6l-1.1,2.6h-4l5.7-12.8h4.3L263,188.3z M257.2,183.5l-1.9-4.7l-1.9,4.7H257.2z"/>
	<path class="st0" d="M278.7,188.3h-3.4l-6.7-7.1v7.1h-3.8v-12.8h3.4l6.6,7.1v-7.1h3.9V188.3z"/>
	<path class="st0" d="M295.7,188.3h-4l-1-2.6h-5.6l-1.1,2.6h-4l5.7-12.8h4.3L295.7,188.3z M289.8,183.5l-1.9-4.7l-1.9,4.7H289.8z"/>
	<path class="st0" d="M309.2,187.4c-0.3,0.1-0.5,0.2-0.7,0.3c-0.2,0.1-0.4,0.1-0.6,0.2s-0.4,0.1-0.8,0.2c-0.6,0.1-1.2,0.2-1.8,0.3
		c-0.6,0.1-1.2,0.1-1.8,0.1c-1.3,0-2.5-0.2-3.6-0.7s-2-1.2-2.7-2.2c-0.7-1-1-2.2-1-3.7c0-0.9,0.2-1.9,0.5-2.8
		c0.3-0.9,0.9-1.6,1.6-2.2c0.6-0.5,1.2-0.8,1.8-1c0.6-0.2,1.2-0.4,1.7-0.5s1.2-0.1,1.9-0.1c1.1,0,2.1,0.1,2.8,0.3
		c0.7,0.2,1.5,0.4,2.4,0.7v3c-0.6-0.3-1.2-0.6-1.8-0.9c-0.6-0.2-1.5-0.3-2.4-0.3c-1.1,0-2,0.2-2.7,0.6c-0.7,0.4-1.1,0.9-1.4,1.5
		c-0.3,0.6-0.4,1.2-0.4,1.7c0,0.6,0.2,1.2,0.5,1.8c0.3,0.5,0.8,1,1.4,1.3c0.6,0.3,1.3,0.5,2.2,0.5c0.5,0,1-0.1,1.6-0.2v-1.5h-1.7
		v-2.6h5.1V187.4z"/>
	<path class="st0" d="M322,188.3h-9.7v-12.8h9.5v2.6h-5.6v2.3h5.4v2.6h-5.4v2.7h5.8V188.3z"/>
	<path class="st0" d="M339.5,188.3h-3.9v-7.4l-3.5,4.3h-0.3l-3.5-4.3v7.4h-3.8v-12.8h3.5l3.9,4.8l4-4.8h3.5V188.3z"/>
	<path class="st0" d="M352.4,188.3h-9.7v-12.8h9.5v2.6h-5.6v2.3h5.4v2.6h-5.4v2.7h5.8V188.3z"/>
	<path class="st0" d="M368.9,188.3h-3.4l-6.7-7.1v7.1H355v-12.8h3.4l6.6,7.1v-7.1h3.9V188.3z"/>
	<path class="st0" d="M384.4,178.6h-4.7v9.7h-3.9v-9.7h-4.7v-3.1h13.3V178.6z"/>
</g>
</svg>
